<svg width="188" height="32" viewBox="0 0 188 32" fill="none" xmlns="http://www.w3.org/2000/svg">
<path d="M7.2157 0H30.6668V3.3684H7.2157V0Z" fill="#D50036"/>
<path d="M0 7.15778H23.4511V10.5262H0V7.15778Z" fill="#D50036"/>
<path d="M7.2157 14.3158H30.6668V17.6842H7.2157V14.3158Z" fill="#D50036"/>
<path d="M12.9883 21.4738H36.4394V24.8422H12.9883V21.4738Z" fill="#D50036"/>
<path d="M7.2157 28.6316H30.6668V32H7.2157V28.6316Z" fill="#D50036"/>
<path d="M56.9764 23.8952C56.8169 24.9652 56.4183 25.9655 55.7804 26.896C55.1625 27.8265 54.3253 28.5825 53.2689 29.164C52.2324 29.7223 51.0165 30.0015 49.6212 30.0015C48.1263 30.0015 46.8406 29.6991 45.7642 29.0943C44.6879 28.4662 43.8706 27.6171 43.3125 26.5471C42.7743 25.477 42.5152 24.2674 42.5351 22.9182H46.1529C46.1131 23.9882 46.3822 24.9071 46.9602 25.6747C47.5582 26.4424 48.4651 26.8262 49.681 26.8262C50.8172 26.8262 51.7142 26.4307 52.3719 25.6398C53.0297 24.8489 53.3586 23.8719 53.3586 22.7088C53.3586 21.9179 53.1792 21.2666 52.8204 20.7548C52.4616 20.2198 52.0032 19.7894 51.4451 19.4638C50.9069 19.1148 50.1694 18.731 49.2325 18.3123C48.1163 17.8005 47.2094 17.3353 46.5117 16.9166C45.834 16.4746 45.256 15.8581 44.7776 15.0672C44.2992 14.2763 44.06 13.2644 44.06 12.0315C44.06 11.4965 44.0999 10.9615 44.1796 10.4264C44.4387 8.7283 45.2261 7.36747 46.5416 6.34394C47.8771 5.32041 49.5016 4.80864 51.4152 4.80864C53.6675 4.80864 55.3618 5.42509 56.498 6.65798C57.6541 7.86761 58.262 9.4378 58.3218 11.3686H54.6443C54.6443 10.4381 54.3752 9.64715 53.837 8.99582C53.2988 8.32122 52.4716 7.98392 51.3554 7.98392C50.3189 7.98392 49.4717 8.30959 48.8139 8.96093C48.1562 9.589 47.8273 10.4962 47.8273 11.6826C47.8273 12.4037 47.9967 13.0085 48.3356 13.497C48.6944 13.9855 49.1329 14.381 49.6511 14.6834C50.1694 14.9858 50.8869 15.3464 51.8038 15.7651C52.9201 16.2536 53.827 16.7305 54.5247 17.1957C55.2422 17.6377 55.8502 18.2658 56.3485 19.0799C56.8468 19.8941 57.096 20.9409 57.096 22.2203C57.096 22.8019 57.0561 23.3602 56.9764 23.8952Z" fill="white"/>
<path d="M77.7314 10.5311L74.8312 29.7572H71.3929L72.0207 25.5701C71.363 26.989 70.456 28.094 69.2999 28.8849C68.1637 29.6525 66.918 30.0364 65.5625 30.0364C63.9281 30.0364 62.6424 29.5013 61.7056 28.4313C60.7687 27.3612 60.3003 25.8259 60.3003 23.8254C60.3003 23.1741 60.3601 22.4646 60.4797 21.6969L62.1839 10.5311H65.5924L63.948 21.2782C63.8683 21.7434 63.8284 22.2203 63.8284 22.7088C63.8284 24.0115 64.1374 25.0118 64.7553 25.7096C65.3931 26.3842 66.2701 26.7215 67.3864 26.7215C68.7418 26.7215 69.8979 26.2098 70.8547 25.1862C71.8114 24.1627 72.4393 22.6739 72.7383 20.7199V20.8595L74.2931 10.5311H77.7314Z" fill="white"/>
<path d="M78.6179 29.7572L82.5347 3.93631H85.9432L84.2688 14.9974C84.9067 13.5784 85.8136 12.4386 86.9896 11.5779C88.1856 10.7172 89.5311 10.2869 91.026 10.2869C92.8997 10.2869 94.3847 10.9498 95.481 12.2758C96.5972 13.6017 97.1553 15.4278 97.1553 17.754C97.1553 18.4984 97.0955 19.2893 96.9759 20.1267C96.6769 22.1505 96.0889 23.9068 95.2119 25.3956C94.3548 26.8844 93.2983 28.0242 92.0426 28.8151C90.8067 29.606 89.4713 30.0015 88.0361 30.0015C86.5411 30.0015 85.3352 29.5711 84.4183 28.7104C83.5014 27.8497 82.9333 26.7099 82.7141 25.2909L82.0264 29.7572H78.6179ZM87.5278 26.4773C89.0427 26.4773 90.3383 25.919 91.4147 24.8024C92.511 23.6626 93.2086 22.104 93.5076 20.1267C93.5873 19.6382 93.6272 19.1265 93.6272 18.5914C93.6272 17.0794 93.2585 15.9047 92.521 15.0672C91.7834 14.2065 90.7669 13.7762 89.4713 13.7762C87.9962 13.7762 86.7006 14.3577 85.5844 15.5208C84.4681 16.6839 83.7605 18.2192 83.4615 20.1267C83.3818 20.592 83.3419 21.0688 83.3419 21.5573C83.3419 23.0694 83.7207 24.2674 84.4781 25.1513C85.2356 26.0353 86.2521 26.4773 87.5278 26.4773Z" fill="white"/>
<path d="M117.062 10.5311L114.161 29.7572H110.723L111.351 25.5701C110.693 26.989 109.786 28.094 108.63 28.8849C107.494 29.6525 106.248 30.0364 104.893 30.0364C103.258 30.0364 101.972 29.5013 101.036 28.4313C100.099 27.3612 99.6304 25.8259 99.6304 23.8254C99.6304 23.1741 99.6902 22.4646 99.8098 21.6969L101.514 10.5311H104.923L103.278 21.2782C103.198 21.7434 103.158 22.2203 103.158 22.7088C103.158 24.0115 103.467 25.0118 104.085 25.7096C104.723 26.3842 105.6 26.7215 106.716 26.7215C108.072 26.7215 109.228 26.2098 110.185 25.1862C111.142 24.1627 111.769 22.6739 112.068 20.7199V20.8595L113.623 10.5311H117.062Z" fill="white"/>
<path d="M123.958 14.2996C124.715 13.0434 125.662 12.0548 126.798 11.3337C127.954 10.5893 129.21 10.2171 130.565 10.2171L129.908 14.5438H128.891C127.396 14.5438 126.13 14.9742 125.094 15.8349C124.057 16.6723 123.4 18.068 123.12 20.022L123.091 19.9872L121.626 29.7572H118.187L121.087 10.5311H124.526L123.958 14.2996Z" fill="white"/>
<path d="M129.89 29.7572L133.807 3.93631H137.215L135.541 14.9974C136.179 13.5784 137.086 12.4386 138.262 11.5779C139.458 10.7172 140.803 10.2869 142.298 10.2869C144.172 10.2869 145.657 10.9498 146.753 12.2758C147.869 13.6017 148.427 15.4278 148.427 17.754C148.427 18.4984 148.368 19.2893 148.248 20.1267C147.949 22.1505 147.361 23.9068 146.484 25.3956C145.627 26.8844 144.57 28.0242 143.315 28.8151C142.079 29.606 140.743 30.0015 139.308 30.0015C137.813 30.0015 136.607 29.5711 135.69 28.7104C134.774 27.8497 134.206 26.7099 133.986 25.2909L133.299 29.7572H129.89ZM138.8 26.4773C140.315 26.4773 141.61 25.919 142.687 24.8024C143.783 23.6626 144.481 22.104 144.78 20.1267C144.86 19.6382 144.899 19.1265 144.899 18.5914C144.899 17.0794 144.531 15.9047 143.793 15.0672C143.056 14.2065 142.039 13.7762 140.743 13.7762C139.268 13.7762 137.973 14.3577 136.857 15.5208C135.74 16.6839 135.033 18.2192 134.734 20.1267C134.654 20.592 134.614 21.0688 134.614 21.5573C134.614 23.0694 134.993 24.2674 135.75 25.1513C136.508 26.0353 137.524 26.4773 138.8 26.4773Z" fill="white"/>
<path d="M159.842 10.2869C161.377 10.2869 162.613 10.7172 163.55 11.5779C164.507 12.4386 165.095 13.5784 165.314 14.9974L166.002 10.5311H169.41L166.48 29.7572H163.071L163.759 25.2909C163.121 26.7099 162.204 27.8497 161.008 28.7104C159.832 29.5711 158.497 30.0015 157.002 30.0015C155.088 30.0015 153.583 29.3269 152.487 27.9777C151.391 26.6285 150.843 24.7675 150.843 22.3948C150.843 21.5108 150.913 20.6501 151.052 19.8127C151.351 17.8587 151.919 16.1722 152.756 14.7532C153.613 13.3109 154.65 12.206 155.866 11.4383C157.102 10.6707 158.427 10.2869 159.842 10.2869ZM160.5 13.7762C158.985 13.7762 157.68 14.3461 156.583 15.4859C155.507 16.6258 154.819 18.1727 154.52 20.1267C154.441 20.6152 154.401 21.1386 154.401 21.6969C154.401 23.209 154.769 24.3837 155.507 25.2211C156.244 26.0586 157.261 26.4773 158.557 26.4773C160.012 26.4773 161.297 25.9074 162.414 24.7675C163.53 23.6044 164.238 22.0575 164.536 20.1267C164.616 19.6615 164.656 19.173 164.656 18.6612C164.656 17.1724 164.277 15.9861 163.52 15.1021C162.762 14.2182 161.756 13.7762 160.5 13.7762Z" fill="white"/>
<path d="M182.768 10.2171C184.382 10.2171 185.658 10.7521 186.595 11.8222C187.532 12.869 188 14.381 188 16.3583C188 17.0561 187.94 17.7889 187.821 18.5565L186.146 29.7572H182.738L184.352 18.9753C184.432 18.5333 184.472 18.068 184.472 17.5795C184.472 16.2768 184.153 15.2882 183.515 14.6136C182.897 13.9157 182.03 13.5668 180.914 13.5668C179.559 13.5668 178.402 14.0786 177.446 15.1021C176.489 16.1024 175.861 17.5795 175.562 19.5335V19.4289L174.007 29.7572H170.569L173.469 10.5311H176.907L176.28 14.7881C176.917 13.3226 177.804 12.1944 178.941 11.4034C180.097 10.6125 181.372 10.2171 182.768 10.2171Z" fill="white"/>
</svg>
